<svg width="41" height="40" viewBox="0 0 41 40" fill="none" xmlns="http://www.w3.org/2000/svg">
<g id="camera">
<path id="Vector" d="M32.1667 10.8335H30.0333L29.5 9.16687C29.1542 8.18892 28.5129 7.34271 27.6648 6.74547C26.8168 6.14823 25.8039 5.82953 24.7667 5.83353H16.2333C15.1859 5.83549 14.1656 6.16634 13.3163 6.77938C12.467 7.39241 11.8317 8.25668 11.5 9.2502L10.9667 10.9169H8.83333C7.50725 10.9169 6.23548 11.4437 5.29779 12.3813C4.36011 13.319 3.83333 14.5908 3.83333 15.9169V29.2502C3.83333 30.5763 4.36011 31.8481 5.29779 32.7857C6.23548 33.7234 7.50725 34.2502 8.83333 34.2502H32.1667C33.4927 34.2502 34.7645 33.7234 35.7022 32.7857C36.6399 31.8481 37.1667 30.5763 37.1667 29.2502V15.9169C37.1777 15.2533 37.0566 14.5941 36.8102 13.9778C36.5639 13.3616 36.1974 12.8005 35.732 12.3273C35.2666 11.8542 34.7116 11.4784 34.0995 11.2219C33.4874 10.9655 32.8303 10.8334 32.1667 10.8335ZM33.8333 29.1669C33.8333 29.6089 33.6577 30.0328 33.3452 30.3454C33.0326 30.6579 32.6087 30.8335 32.1667 30.8335H8.83333C8.3913 30.8335 7.96738 30.6579 7.65482 30.3454C7.34226 30.0328 7.16666 29.6089 7.16666 29.1669V15.8335C7.16666 15.3915 7.34226 14.9676 7.65482 14.655C7.96738 14.3425 8.3913 14.1669 8.83333 14.1669H12.1667C12.5301 14.1858 12.8898 14.0853 13.1907 13.8807C13.4917 13.676 13.7174 13.3785 13.8333 13.0335L14.7333 10.3002C14.8451 9.96916 15.0582 9.68164 15.3423 9.47827C15.6264 9.2749 15.9673 9.16596 16.3167 9.16687H24.85C25.1994 9.16596 25.5403 9.2749 25.8244 9.47827C26.1085 9.68164 26.3215 9.96916 26.4333 10.3002L27.3333 13.0335C27.4403 13.3514 27.6407 13.6297 27.9083 13.8319C28.1759 14.0341 28.4983 14.1508 28.8333 14.1669H32.1667C32.6087 14.1669 33.0326 14.3425 33.3452 14.655C33.6577 14.9676 33.8333 15.3915 33.8333 15.8335V29.1669ZM20.5 14.1669C19.1815 14.1669 17.8925 14.5579 16.7962 15.2904C15.6999 16.0229 14.8454 17.0641 14.3408 18.2823C13.8362 19.5005 13.7042 20.8409 13.9614 22.1341C14.2187 23.4273 14.8536 24.6152 15.7859 25.5476C16.7183 26.4799 17.9062 27.1149 19.1994 27.3721C20.4926 27.6293 21.833 27.4973 23.0512 26.9927C24.2694 26.4881 25.3106 25.6337 26.0431 24.5373C26.7757 23.441 27.1667 22.1521 27.1667 20.8335C27.1667 19.0654 26.4643 17.3697 25.214 16.1195C23.9638 14.8692 22.2681 14.1669 20.5 14.1669ZM20.5 24.1669C19.8407 24.1669 19.1963 23.9714 18.6481 23.6051C18.0999 23.2388 17.6727 22.7182 17.4204 22.1091C17.1681 21.5001 17.1021 20.8298 17.2307 20.1832C17.3593 19.5366 17.6768 18.9427 18.143 18.4765C18.6091 18.0103 19.2031 17.6929 19.8497 17.5642C20.4963 17.4356 21.1665 17.5016 21.7756 17.7539C22.3847 18.0062 22.9053 18.4335 23.2716 18.9816C23.6378 19.5298 23.8333 20.1743 23.8333 20.8335C23.8333 21.7176 23.4821 22.5654 22.857 23.1906C22.2319 23.8157 21.3841 24.1669 20.5 24.1669Z" fill="white"/>
</g>
</svg>
