<svg width="41" height="40" viewBox="0 0 41 40" fill="none" xmlns="http://www.w3.org/2000/svg">
<g id="camera">
<path id="Vector" d="M32.1667 10.8333H30.0333L29.5 9.16667C29.1543 8.18872 28.5129 7.34251 27.6648 6.74527C26.8168 6.14803 25.8039 5.82934 24.7667 5.83333H16.2333C15.1859 5.83529 14.1656 6.16614 13.3163 6.77918C12.467 7.39221 11.8317 8.25648 11.5 9.25L10.9667 10.9167H8.83334C7.50726 10.9167 6.23549 11.4435 5.29781 12.3811C4.36013 13.3188 3.83334 14.5906 3.83334 15.9167V29.25C3.83334 30.5761 4.36013 31.8479 5.29781 32.7855C6.23549 33.7232 7.50726 34.25 8.83334 34.25H32.1667C33.4928 34.25 34.7645 33.7232 35.7022 32.7855C36.6399 31.8479 37.1667 30.5761 37.1667 29.25V15.9167C37.1777 15.2531 37.0566 14.5939 36.8103 13.9776C36.5639 13.3614 36.1974 12.8003 35.732 12.3271C35.2666 11.854 34.7117 11.4782 34.0995 11.2217C33.4874 10.9653 32.8304 10.8332 32.1667 10.8333ZM33.8333 29.1667C33.8333 29.6087 33.6577 30.0326 33.3452 30.3452C33.0326 30.6577 32.6087 30.8333 32.1667 30.8333H8.83334C8.39132 30.8333 7.96739 30.6577 7.65483 30.3452C7.34227 30.0326 7.16668 29.6087 7.16668 29.1667V15.8333C7.16668 15.3913 7.34227 14.9674 7.65483 14.6548C7.96739 14.3423 8.39132 14.1667 8.83334 14.1667H12.1667C12.5301 14.1856 12.8898 14.0851 13.1907 13.8805C13.4917 13.6758 13.7174 13.3783 13.8333 13.0333L14.7333 10.3C14.8452 9.96897 15.0582 9.68144 15.3423 9.47807C15.6264 9.2747 15.9673 9.16577 16.3167 9.16667H24.85C25.1994 9.16577 25.5403 9.2747 25.8244 9.47807C26.1085 9.68144 26.3215 9.96897 26.4333 10.3L27.3333 13.0333C27.4403 13.3512 27.6407 13.6295 27.9083 13.8317C28.1759 14.0339 28.4983 14.1506 28.8333 14.1667H32.1667C32.6087 14.1667 33.0326 14.3423 33.3452 14.6548C33.6577 14.9674 33.8333 15.3913 33.8333 15.8333V29.1667ZM20.5 14.1667C19.1815 14.1667 17.8925 14.5577 16.7962 15.2902C15.6999 16.0227 14.8454 17.0639 14.3408 18.2821C13.8362 19.5003 13.7042 20.8407 13.9614 22.1339C14.2187 23.4271 14.8536 24.615 15.786 25.5474C16.7183 26.4797 17.9062 27.1147 19.1994 27.3719C20.4926 27.6291 21.8331 27.4971 23.0512 26.9925C24.2694 26.4879 25.3106 25.6335 26.0431 24.5371C26.7757 23.4408 27.1667 22.1519 27.1667 20.8333C27.1667 19.0652 26.4643 17.3695 25.2141 16.1193C23.9638 14.869 22.2681 14.1667 20.5 14.1667ZM20.5 24.1667C19.8407 24.1667 19.1963 23.9712 18.6481 23.6049C18.0999 23.2386 17.6727 22.718 17.4204 22.1089C17.1681 21.4999 17.1021 20.8296 17.2307 20.183C17.3593 19.5364 17.6768 18.9425 18.143 18.4763C18.6092 18.0101 19.2031 17.6927 19.8497 17.5641C20.4963 17.4354 21.1665 17.5014 21.7756 17.7537C22.3847 18.006 22.9053 18.4333 23.2716 18.9814C23.6378 19.5296 23.8333 20.1741 23.8333 20.8333C23.8333 21.7174 23.4822 22.5652 22.857 23.1904C22.2319 23.8155 21.3841 24.1667 20.5 24.1667Z" fill="white"/>
</g>
</svg>
