<svg width="36" height="36" viewBox="0 0 36 36" fill="none" xmlns="http://www.w3.org/2000/svg">
<path fill-rule="evenodd" clip-rule="evenodd" d="M19.8481 2.04003C20.7961 0.903028 22.6425 1.68003 22.4925 3.15303L21.4335 13.5H30C30.2851 13.5001 30.5642 13.5814 30.8046 13.7344C31.0451 13.8874 31.237 14.1058 31.3579 14.3639C31.4788 14.622 31.5236 14.9092 31.4872 15.1919C31.4507 15.4746 31.3345 15.741 31.1521 15.96L16.152 33.96C15.204 35.097 13.3575 34.32 13.5075 32.847L14.5665 22.5H6.00005C5.71503 22.4999 5.43594 22.4186 5.19546 22.2656C4.95497 22.1126 4.76306 21.8943 4.64218 21.6362C4.52131 21.378 4.47647 21.0908 4.51293 20.8082C4.54939 20.5255 4.66564 20.259 4.84805 20.04L19.8481 2.04003Z" fill="white"/>
</svg>
