<svg width="41" height="40" viewBox="0 0 41 40" fill="none" xmlns="http://www.w3.org/2000/svg">
<g id="home">
<path id="Vector" d="M10.5 31.6667H15.5V23.3333C15.5 22.8611 15.66 22.4656 15.98 22.1467C16.3 21.8278 16.6955 21.6678 17.1667 21.6667H23.8333C24.3055 21.6667 24.7017 21.8267 25.0217 22.1467C25.3417 22.4667 25.5011 22.8622 25.5 23.3333V31.6667H30.5V16.6667L20.5 9.16666L10.5 16.6667V31.6667ZM7.16666 31.6667V16.6667C7.16666 16.1389 7.28499 15.6389 7.52166 15.1667C7.75832 14.6944 8.08443 14.3056 8.49999 14L18.5 6.5C19.0833 6.05555 19.75 5.83333 20.5 5.83333C21.25 5.83333 21.9167 6.05555 22.5 6.5L32.5 14C32.9167 14.3056 33.2433 14.6944 33.48 15.1667C33.7167 15.6389 33.8344 16.1389 33.8333 16.6667V31.6667C33.8333 32.5833 33.5067 33.3683 32.8533 34.0217C32.2 34.675 31.4155 35.0011 30.5 35H23.8333C23.3611 35 22.9655 34.84 22.6467 34.52C22.3278 34.2 22.1678 33.8044 22.1667 33.3333V25H18.8333V33.3333C18.8333 33.8056 18.6733 34.2017 18.3533 34.5217C18.0333 34.8417 17.6378 35.0011 17.1667 35H10.5C9.58332 35 8.79888 34.6739 8.14666 34.0217C7.49443 33.3694 7.16777 32.5844 7.16666 31.6667Z" fill="#B6EEA6"/>
</g>
</svg>
