<svg width="41" height="40" viewBox="0 0 41 40" fill="none" xmlns="http://www.w3.org/2000/svg">
<g id="home">
<path id="Vector" d="M10.5 31.6668H15.5V23.3335C15.5 22.8613 15.66 22.4657 15.98 22.1468C16.3 21.8279 16.6955 21.6679 17.1667 21.6668H23.8333C24.3055 21.6668 24.7017 21.8268 25.0217 22.1468C25.3417 22.4668 25.5011 22.8624 25.5 23.3335V31.6668H30.5V16.6668L20.5 9.16683L10.5 16.6668V31.6668ZM7.16666 31.6668V16.6668C7.16666 16.1391 7.28499 15.6391 7.52166 15.1668C7.75832 14.6946 8.08443 14.3057 8.49999 14.0002L18.5 6.50016C19.0833 6.05572 19.75 5.8335 20.5 5.8335C21.25 5.8335 21.9167 6.05572 22.5 6.50016L32.5 14.0002C32.9167 14.3057 33.2433 14.6946 33.48 15.1668C33.7167 15.6391 33.8344 16.1391 33.8333 16.6668V31.6668C33.8333 32.5835 33.5067 33.3685 32.8533 34.0218C32.2 34.6752 31.4155 35.0013 30.5 35.0002H23.8333C23.3611 35.0002 22.9655 34.8402 22.6467 34.5202C22.3278 34.2002 22.1678 33.8046 22.1667 33.3335V25.0002H18.8333V33.3335C18.8333 33.8057 18.6733 34.2018 18.3533 34.5218C18.0333 34.8418 17.6378 35.0013 17.1667 35.0002H10.5C9.58332 35.0002 8.79888 34.6741 8.14666 34.0218C7.49443 33.3696 7.16777 32.5846 7.16666 31.6668Z" fill="white"/>
</g>
</svg>
