<svg width="271" height="281" viewBox="0 0 271 281" fill="none" xmlns="http://www.w3.org/2000/svg">
<path d="M94.9086 7.29781C112.1 1.61186 130.243 -0.632366 148.301 0.693274C166.36 2.01891 183.98 6.88846 200.157 15.0239C216.333 23.1593 230.749 34.4013 242.581 48.1079C254.413 61.8145 263.429 77.7175 269.115 94.9086C271.412 101.852 270.856 109.424 267.57 115.958C264.284 122.492 258.537 127.453 251.593 129.75L42.1391 199.026C35.1953 201.323 27.6235 200.767 21.0895 197.481C14.5555 194.195 9.59449 188.448 7.29783 181.504C-4.18547 146.785 -1.40632 108.926 15.0239 76.2563C31.4541 43.5862 60.1895 18.7811 94.9086 7.29781ZM120.887 85.843C127.831 83.5463 133.578 78.5853 136.864 72.0513C140.15 65.5173 140.706 57.9455 138.41 51.0017C136.113 44.0579 131.152 38.3108 124.618 35.0248C118.084 31.7387 110.512 31.1829 103.568 33.4795C96.6244 35.7762 90.8773 40.7372 87.5913 47.2712C84.3052 53.8052 83.7494 61.377 86.0461 68.3208C88.3427 75.2647 93.3037 81.0117 99.8377 84.2978C106.372 87.5838 113.944 88.1397 120.887 85.843ZM203.661 116.558C210.605 114.261 216.352 109.3 219.638 102.766C222.924 96.2318 223.48 88.6601 221.183 81.7162C218.886 74.7724 213.925 69.0253 207.391 65.7393C200.857 62.4533 193.285 61.8974 186.342 64.1941C179.398 66.4907 173.651 71.4518 170.365 77.9858C167.079 84.5198 166.523 92.0916 168.82 99.0354C171.116 105.979 176.077 111.726 182.611 115.012C189.145 118.298 196.717 118.854 203.661 116.558ZM72.7522 159.855C79.696 157.559 85.4431 152.598 88.7291 146.064C92.0151 139.53 92.571 131.958 90.2743 125.014C87.9777 118.07 83.0166 112.323 76.4826 109.037C69.9486 105.751 62.3769 105.195 55.433 107.492C48.4892 109.789 42.7421 114.75 39.4561 121.284C36.17 127.818 35.6142 135.389 37.9109 142.333C40.2075 149.277 45.1685 155.024 51.7025 158.31C58.2366 161.596 65.8083 162.152 72.7522 159.855ZM190.468 164.49L226.361 217.245L229.79 224.099C234.553 238.499 226.668 254.177 212.268 258.94L150.741 279.29C143.797 281.587 136.225 281.031 129.691 277.745C123.157 274.459 118.196 268.712 115.899 261.768L114.565 254.222L111.923 190.468L190.468 164.49Z" fill="#B6EEA6" fill-opacity="0.24"/>
</svg>
