<svg width="16" height="16" viewBox="0 0 16 16" fill="none" xmlns="http://www.w3.org/2000/svg">
<g id="Group">
<g id="Layer_90">
<path id="Shape" fill-rule="evenodd" clip-rule="evenodd" d="M15.5 13.25V2.75C15.5 1.50736 14.4926 0.5 13.25 0.5H2.75001C1.50737 0.5 0.500008 1.50736 0.500008 2.75V13.25C0.500008 14.4926 1.50737 15.5 2.75001 15.5H13.25C14.4926 15.5 15.5 14.4926 15.5 13.25ZM7.24565 4.25017C7.24565 4.45015 7.32552 4.64184 7.4675 4.78267C7.68207 4.99901 8.0062 5.06404 8.28761 4.9472C8.56903 4.83035 8.75178 4.55487 8.75 4.25017C8.75178 3.94547 8.56903 3.66998 8.28761 3.55314C8.0062 3.4363 7.68207 3.50132 7.4675 3.71767C7.32552 3.85849 7.24565 4.05019 7.24565 4.25017ZM14 2.74983C14 2.33562 13.6642 1.99983 13.25 1.99983H2.75001C2.3358 1.99983 2.00001 2.33562 2.00001 2.74983V13.2498C2.00001 13.664 2.3358 13.9998 2.75001 13.9998H13.25C13.6642 13.9998 14 13.664 14 13.2498V2.74983ZM8.75001 10.9999H8.85501C9.26922 10.9999 9.60501 11.3357 9.60501 11.7499C9.60501 12.1641 9.26922 12.4999 8.85501 12.4999H7.14501C6.73079 12.4999 6.39501 12.1641 6.39501 11.7499C6.39501 11.3357 6.73079 10.9999 7.14501 10.9999H7.25001V7.24991C6.83579 7.24991 6.50001 6.91412 6.50001 6.49991C6.50001 6.08569 6.83579 5.74991 7.25001 5.74991H8.00001C8.41422 5.74991 8.75001 6.08569 8.75001 6.49991V10.9999Z" fill="#324053"/>
</g>
</g>
</svg>
